/* XPM */
static char * FLECHE_xpm[] = {
"10 15 4 1",
" 	c None",
".	c #000000",
"+	c #FFFFFF",
"@	c #808080",
"          ",
"    +@    ",
"   +  @   ",
"   +  @   ",
"  +    @  ",
"  +    @  ",
" +      @ ",
" +@@@@@@@ ",
" +      @ ",
"  +    @  ",
"  +    @  ",
"   +  @   ",
"   +  @   ",
"    +@    ",
"          "};
