/* XPM */
static char * FLECHE_BAS_xpm[] = {
"10 15 5 1",
" 	c None",
".	c #000000",
"+	c #FFFFFF",
"@	c #C0C0C0",
"#	c #808080",
"          ",
"          ",
"          ",
"          ",
"          ",
"          ",
"          ",
" +####### ",
" +@@@@@@# ",
"  +@@@@#  ",
"  +@@@@#  ",
"   +@@#   ",
"   +@@#   ",
"    +#    ",
"          "};
