/* XPM */
static char * TFWFillCombo_xpm[] = {
"24 24 24 1",
" 	c None",
".	c #7B9EAD",
"+	c #003873",
"@	c #FFFFFF",
"#	c #FEFEFE",
"$	c #FDFDFD",
"%	c #FDFCFC",
"&	c #FCFBFA",
"*	c #FBFAF9",
"=	c #FAF9F8",
"-	c #FAF8F7",
";	c #F9F7F6",
">	c #F8F6F5",
",	c #F7F5F4",
"'	c #F6F4F2",
")	c #F6F3F1",
"!	c #F5F2F0",
"~	c #F4F1EF",
"{	c #000000",
"]	c #F3F0ED",
"^	c #F3EFEC",
"/	c #F2EEEB",
"(	c #F0EDE9",
"_	c #F0ECE8",
"                        ",
"  .++++++++++++++++++.  ",
" .+@@@@@@@@@@@@@@@@@@+. ",
" +####################+ ",
" +$$$$$$$$$$$$$$$$$$$$+ ",
" +%%%%%%%%%%%%%%%%%%%%+ ",
" +&&&&&&&&&&&&&&&&&&&&+ ",
" +********************+ ",
" +====================+ ",
" +--------------------+ ",
" +;;;;;;;;;;;;;;;;;;;;+ ",
" +>>>>>>>>>>>>>>>>>>>>+ ",
" +,,,,,,,,,,,,,,,,,,,,+ ",
" +''''''''''''''''''''+ ",
" +))))))))))))))))))))+ ",
" +!!!!!!!!!!!!!!!!!!!!+ ",
" +~~~~~~{~~{~~{~~~~~~~+ ",
" +]]]]]]]]]]]]]]]]]]]]+ ",
" +^^^^^^^^^^^^^^^^^^^^+ ",
" +////////////////////+ ",
" +((((((((((((((((((((+ ",
" .+__________________+. ",
"  .++++++++++++++++++.  ",
"                        "};
