/* XPM */
static char * TFWPrintSources_xpm[] = {
"24 24 170 2",
"  	c None",
". 	c #7B9EAD",
"+ 	c #003873",
"@ 	c #FFFFFF",
"# 	c #FEFEFE",
"$ 	c #FDFDFD",
"% 	c #A8A8C5",
"& 	c #C7C5D0",
"* 	c #A9A7B8",
"= 	c #B4B1C2",
"- 	c #BBB9CB",
"; 	c #BBBBCE",
"> 	c #DBDBE4",
", 	c #FDFCFC",
"' 	c #D0CFDB",
") 	c #AFB4CE",
"! 	c #CBCFDC",
"~ 	c #E3E1E9",
"{ 	c #FCFBFA",
"] 	c #ECEBF0",
"^ 	c #969DBA",
"/ 	c #DFF4FF",
"( 	c #DBEDFF",
"_ 	c #D8EAFF",
": 	c #DEF1FF",
"< 	c #C7D5E5",
"[ 	c #CED0DC",
"} 	c #FBFAF9",
"| 	c #C4CBDA",
"1 	c #A1BCDB",
"2 	c #D3F0FF",
"3 	c #C7E1FF",
"4 	c #C8E4FF",
"5 	c #BCD6F2",
"6 	c #CFD7EA",
"7 	c #FAF9F8",
"8 	c #D0D2E1",
"9 	c #9EBCDE",
"0 	c #BCE5FF",
"a 	c #B7DCFF",
"b 	c #B7DEFF",
"c 	c #AAD2F6",
"d 	c #ACBDD7",
"e 	c #E1DFE5",
"f 	c #FAF8F7",
"g 	c #C2C3CB",
"h 	c #A5BAE6",
"i 	c #ACCCFE",
"j 	c #AEC8F1",
"k 	c #B3CCEE",
"l 	c #BED6EE",
"m 	c #AFB8C5",
"n 	c #B1B0B2",
"o 	c #D9D9D9",
"p 	c #F9F7F6",
"q 	c #CCCDCC",
"r 	c #A5A4A4",
"s 	c #D4D5E5",
"t 	c #B6B8CD",
"u 	c #A9A8B3",
"v 	c #B5B1B4",
"w 	c #CEC8C2",
"x 	c #C8C3BE",
"y 	c #B9B9B7",
"z 	c #BEBEBF",
"A 	c #B0B0B0",
"B 	c #DDDDDD",
"C 	c #F8F6F5",
"D 	c #BDBDBD",
"E 	c #B0B1B1",
"F 	c #BEBDBD",
"G 	c #D3D1CA",
"H 	c #B5B3A9",
"I 	c #BEBDB5",
"J 	c #D0D0CB",
"K 	c #D2D3D2",
"L 	c #D6D7D8",
"M 	c #E4E4E4",
"N 	c #DADADA",
"O 	c #BFC0BF",
"P 	c #969695",
"Q 	c #EAEAEA",
"R 	c #F7F5F4",
"S 	c #8A8A8A",
"T 	c #E9E9E9",
"U 	c #DEDEDE",
"V 	c #CBCCCD",
"W 	c #D1D2D3",
"X 	c #DFDFE1",
"Y 	c #E1E1E1",
"Z 	c #DFDFDF",
"` 	c #D4D5D4",
" .	c #E4E2E6",
"..	c #8F8B91",
"+.	c #C1C1C2",
"@.	c #F6F4F2",
"#.	c #7D7D7D",
"$.	c #C9C9C9",
"%.	c #D7D7D7",
"&.	c #E5E5E5",
"*.	c #D8D8D8",
"=.	c #CECECE",
"-.	c #B5B5B5",
";.	c #A9A6A9",
">.	c #A7AFA5",
",.	c #6A7365",
"'.	c #BEBCBF",
").	c #F6F3F1",
"!.	c #828282",
"~.	c #C6C6C6",
"{.	c #D0D0D0",
"].	c #CCCCCC",
"^.	c #B2B2B2",
"/.	c #989898",
"(.	c #919191",
"_.	c #999B99",
":.	c #B2ABB5",
"<.	c #9DB093",
"[.	c #667D5A",
"}.	c #C5C2C6",
"|.	c #F5F2F0",
"1.	c #6D6D6D",
"2.	c #B8B8B8",
"3.	c #A7A7A7",
"4.	c #858586",
"5.	c #A4A4A4",
"6.	c #B6B6B5",
"7.	c #B3B2B4",
"8.	c #888D86",
"9.	c #616660",
"0.	c #B8B8BA",
"a.	c #F4F1EF",
"b.	c #A2A2A2",
"c.	c #878787",
"d.	c #D2D2D2",
"e.	c #A6A6A6",
"f.	c #A3A3A1",
"g.	c #9A9A95",
"h.	c #7C7C7A",
"i.	c #727272",
"j.	c #707170",
"k.	c #ABAAAC",
"l.	c #B2B1B3",
"m.	c #959495",
"n.	c #F3F0ED",
"o.	c #BCBCBC",
"p.	c #696969",
"q.	c #A9A9A9",
"r.	c #EAEAE9",
"s.	c #A4A4A6",
"t.	c #585862",
"u.	c #5B5B5E",
"v.	c #8B8B8A",
"w.	c #D4D4D4",
"x.	c #B5B4B3",
"y.	c #E6E5E5",
"z.	c #F3EFEC",
"A.	c #979797",
"B.	c #676767",
"C.	c #555552",
"D.	c #5D5D5E",
"E.	c #696984",
"F.	c #6E6E86",
"G.	c #A8A8AB",
"H.	c #F2EEEB",
"I.	c #EBEBEB",
"J.	c #DCDCDC",
"K.	c #E8E8E8",
"L.	c #F0EDE9",
"M.	c #F0ECE8",
"                                                ",
"    . + + + + + + + + + + + + + + + + + + .     ",
"  . + @ @ @ @ @ @ @ @ @ @ @ @ @ @ @ @ @ @ + .   ",
"  + # # # # # # # # # # # # # # # # # # # # +   ",
"  + $ $ $ $ % & * = - ; > $ $ $ $ $ $ $ $ $ +   ",
"  + , , , , ' ) @ @ @ @ ! ~ , , , , , , , , +   ",
"  + { { { { ] ^ / ( _ : < [ { { { { { { { { +   ",
"  + } } } } } | 1 2 3 4 5 6 } } } } } } } } +   ",
"  + 7 7 7 7 7 8 9 0 a b c d e 7 7 7 7 7 7 7 +   ",
"  + f f f f f g h i j k l m n o f f f f f f +   ",
"  + p p p p q r s t u v w x y z A B p p p p +   ",
"  + C C C D E F G H I J K L M N O P Q C C C +   ",
"  + R R R S T U V W X @ T Y Z `  ...+.R R R +   ",
"  + @.@.@.#.$.%.Q &.Q M *.=.-.;.>.,.'.@.@.@.+   ",
"  + ).).).!.~.-.-.{.].^./.(._.:.<.[.}.).).).+   ",
"  + |.|.|.1.@ M 2.3.S 4.5.^.6.7.8.9.0.|.|.|.+   ",
"  + a.a.a.b.c.@ @ d.e.f.g.h.i.j.k.l.m.a.a.a.+   ",
"  + n.n.n.n.o.p.q.@ r.s.t.u.v.w.x.b.y.n.n.n.+   ",
"  + z.z.z.z.z.Y A.B.C.D.E.F.G.3.o z.z.z.z.z.+   ",
"  + H.H.H.H.H.H.H.I.J.I.I.K.H.H.H.H.H.H.H.H.+   ",
"  + L.L.L.L.L.L.L.L.L.L.L.L.L.L.L.L.L.L.L.L.+   ",
"  . + M.M.M.M.M.M.M.M.M.M.M.M.M.M.M.M.M.M.+ .   ",
"    . + + + + + + + + + + + + + + + + + + .     ",
"                                                "};
