/* XPM */
static char * TManFillCombo_xpm[] = {
"24 24 47 1",
" 	c None",
".	c #7B9EAD",
"+	c #003873",
"@	c #FFFFFF",
"#	c #0000FF",
"$	c #0F0FFF",
"%	c #E3E3FF",
"&	c #FEFEFE",
"*	c #4E4EFE",
"=	c #4141FE",
"-	c #4F4FFE",
";	c #0000FE",
">	c #8484FE",
",	c #5252FE",
"'	c #6A6AFE",
")	c #FDFDFD",
"!	c #A6A6FD",
"~	c #A7A7FD",
"{	c #E1E1FD",
"]	c #2424FE",
"^	c #C0C0FD",
"/	c #1111FE",
"(	c #FDFCFC",
"_	c #F4F3FC",
":	c #1818FE",
"<	c #5E5DFD",
"[	c #0808FE",
"}	c #0303FE",
"|	c #FCFBFA",
"1	c #4140FD",
"2	c #5352FD",
"3	c #FBFAF9",
"4	c #FAF9F8",
"5	c #FAF8F7",
"6	c #F9F7F6",
"7	c #F8F6F5",
"8	c #F7F5F4",
"9	c #F6F4F2",
"0	c #F6F3F1",
"a	c #F5F2F0",
"b	c #F4F1EF",
"c	c #000000",
"d	c #F3F0ED",
"e	c #F3EFEC",
"f	c #F2EEEB",
"g	c #F0EDE9",
"h	c #F0ECE8",
"                        ",
"  .++++++++++++++++++.  ",
" .+@@@@@@#$%$#@@@@@@@+. ",
" +&&&&&&&#*=-#&&;>&#,'+ ",
" +)))))))#!#~#)){])#^/+ ",
" +(((((((#_:_#(<[}(#(#+ ",
" +|||||||#|||#|12#|#|#+ ",
" +33333333333333333333+ ",
" +44444444444444444444+ ",
" +55555555555555555555+ ",
" +66666666666666666666+ ",
" +77777777777777777777+ ",
" +88888888888888888888+ ",
" +99999999999999999999+ ",
" +00000000000000000000+ ",
" +aaaaaaaaaaaaaaaaaaaa+ ",
" +bbbbbbcbbcbbcbbbbbbb+ ",
" +dddddddddddddddddddd+ ",
" +eeeeeeeeeeeeeeeeeeee+ ",
" +ffffffffffffffffffff+ ",
" +gggggggggggggggggggg+ ",
" .+hhhhhhhhhhhhhhhhhh+. ",
"  .++++++++++++++++++.  ",
"                        "};
